<svg xmlns="http://www.w3.org/2000/svg" version="1.1" xmlns:xlink="http://www.w3.org/1999/xlink" xmlns:svgjs="http://svgjs.dev/svgjs" width="1500" height="856" viewBox="0 0 1500 856"><g transform="matrix(1,0,0,1,-0.9090909090909918,1.5886429650021796)"><svg viewBox="0 0 396 226" data-background-color="#ffffff" preserveAspectRatio="xMidYMid meet" height="856" width="1500" xmlns="http://www.w3.org/2000/svg" xmlns:xlink="http://www.w3.org/1999/xlink"><g id="tight-bounds" transform="matrix(1,0,0,1,0.2400000000000091,1.039503441403184)"><svg viewBox="0 0 395.52 225.08739968000003" height="225.08739968000003" width="395.52"><g><svg viewBox="0 0 395.52 225.08739968000003" height="225.08739968000003" width="395.52"><g transform="matrix(1,0,0,1,0,135.38713352574328)"><svg viewBox="0 0 395.52 89.70026615425674" height="89.70026615425674" width="395.52"><g id="textblocktransform"><svg viewBox="0 0 395.52 89.70026615425674" height="89.70026615425674" width="395.52" id="textblock"><g><svg viewBox="0 0 395.52 48.38003736322391" height="48.38003736322391" width="395.52"><g transform="matrix(1,0,0,1,0,0)"><svg width="395.52" viewBox="3.78 -33.8 280.99 34.38" height="48.38003736322391" data-palette-color="#336a86"><path d="M26.68 0L22.4 0 21.5-6.55Q21.25-8.4 20.65-9.76 20.05-11.13 18.81-11.9 17.57-12.68 15.3-12.68L15.3-12.68 6.63-12.7 6.63-15.98 15.9-16Q19.18-16 20.58-17.61 21.98-19.23 21.98-22L21.98-22 21.98-22.75Q21.98-25.5 20.55-27.01 19.13-28.53 15.8-28.53L15.8-28.53 6.5-28.53 6.5-31.95 16.35-31.95Q21.5-31.95 23.84-29.69 26.18-27.43 26.18-23.45L26.18-23.45 26.18-22.6Q26.18-19.48 24.7-17.49 23.23-15.5 19.8-15.08L19.8-15.08 19.8-14.58 18.03-15.2Q20.8-15 22.31-13.99 23.83-12.98 24.53-11.23 25.23-9.47 25.6-7.03L25.6-7.03 26.68 0ZM7.88 0L3.78 0 3.78-31.95 7.85-31.95 7.85-14.88 7.88-13.3 7.88 0ZM42.32 0.55L42.32 0.55Q36.75 0.55 33.92-2.18 31.1-4.9 31.1-9.98L31.1-9.98 31.1-14.33Q31.1-19.48 33.72-22.26 36.35-25.05 41.4-25.05L41.4-25.05Q44.8-25.05 47.07-23.79 49.35-22.53 50.5-20.2 51.65-17.88 51.65-14.65L51.65-14.65 51.65-13.75Q51.65-12.95 51.59-12.15 51.52-11.35 51.42-10.58L51.42-10.58 47.7-10.58Q47.75-11.78 47.76-12.85 47.77-13.93 47.77-14.83L47.77-14.83Q47.77-17.05 47.06-18.59 46.35-20.13 44.94-20.94 43.52-21.75 41.4-21.75L41.4-21.75Q38.25-21.75 36.67-19.93 35.1-18.1 35.1-14.7L35.1-14.7 35.1-12.38 35.12-11.88 35.12-9.55Q35.12-8.03 35.57-6.8 36.02-5.58 36.98-4.69 37.95-3.8 39.44-3.34 40.92-2.88 42.97-2.88L42.97-2.88Q45.35-2.88 47.4-3.5 49.45-4.13 51.25-5.2L51.25-5.2 50.87-1.7Q49.25-0.68 47.1-0.06 44.95 0.55 42.32 0.55ZM50.57-10.58L33.22-10.58 33.22-13.63 50.57-13.63 50.57-10.58ZM64.67 0.55L64.67 0.55Q61.72 0.55 59.52-0.09 57.32-0.73 55.87-1.48L55.87-1.48 55.5-5.23Q57.32-4.28 59.51-3.58 61.7-2.88 64.47-2.88L64.47-2.88Q67.3-2.88 68.72-3.78 70.15-4.67 70.15-6.45L70.15-6.45 70.15-6.73Q70.15-7.88 69.61-8.63 69.07-9.38 67.67-9.95 66.27-10.53 63.7-11.1L63.7-11.1Q60.62-11.78 58.85-12.69 57.07-13.6 56.31-14.95 55.55-16.3 55.55-18.25L55.55-18.25 55.55-18.48Q55.55-21.68 57.77-23.33 60-24.98 64.47-24.98L64.47-24.98Q67.34-24.98 69.46-24.33 71.57-23.68 72.92-22.88L72.92-22.88 73.3-19.45Q71.67-20.4 69.57-21.03 67.47-21.65 64.84-21.65L64.84-21.65Q62.95-21.65 61.77-21.26 60.6-20.88 60.07-20.16 59.55-19.45 59.55-18.45L59.55-18.45 59.55-18.25Q59.55-17.15 60.07-16.39 60.6-15.63 61.96-15.06 63.32-14.5 65.75-13.98L65.75-13.98Q68.87-13.35 70.71-12.48 72.55-11.6 73.34-10.26 74.15-8.93 74.15-6.83L74.15-6.83 74.15-6.4Q74.15-2.95 71.75-1.2 69.34 0.55 64.67 0.55ZM78.79-24.4L82.82-24.4 82.82-9.22Q82.82-7.3 83.36-5.86 83.89-4.42 85.12-3.64 86.34-2.85 88.42-2.85L88.42-2.85Q90.37-2.85 91.77-3.56 93.17-4.28 94.06-5.53 94.94-6.78 95.27-8.35L95.27-8.35 95.99-5.48 95.12-5.48Q94.74-3.83 93.74-2.46 92.74-1.1 91.06-0.29 89.37 0.53 86.89 0.53L86.89 0.53Q84.02 0.53 82.23-0.56 80.44-1.65 79.62-3.74 78.79-5.83 78.79-8.78L78.79-8.78 78.79-24.4ZM95.09-24.4L99.14-24.4 99.14 0 95.09 0 95.27-5.85 95.09-6.1 95.09-24.4ZM140.27 0L136.22 0 136.22-15.28Q136.22-17.2 135.73-18.61 135.24-20.03 134.13-20.8 133.02-21.58 131.14-21.58L131.14-21.58Q129.37-21.58 128.06-20.85 126.77-20.13 125.97-18.91 125.17-17.7 124.84-16.15L124.84-16.15 124.22-19.03 124.72-19.03Q125.12-20.6 126.07-21.95 127.02-23.3 128.64-24.13 130.27-24.95 132.67-24.95L132.67-24.95Q135.39-24.95 137.05-23.88 138.72-22.8 139.49-20.74 140.27-18.68 140.27-15.73L140.27-15.73 140.27 0ZM109.79 0L105.74 0 105.74-24.4 109.79-24.4 109.62-18.55 109.79-18.3 109.79 0ZM125.02 0L120.99 0 120.99-15.28Q120.99-17.2 120.5-18.61 120.02-20.03 118.92-20.8 117.82-21.58 115.94-21.58L115.94-21.58Q114.14-21.58 112.84-20.85 111.54-20.13 110.74-18.89 109.94-17.65 109.62-16.07L109.62-16.07 108.87-18.95 109.77-18.95Q110.14-20.6 111.07-21.96 111.99-23.33 113.58-24.14 115.17-24.95 117.44-24.95L117.44-24.95Q120.82-24.95 122.58-23.2 124.34-21.45 124.79-18.1L124.79-18.1Q124.92-17.6 124.97-17.01 125.02-16.43 125.02-15.85L125.02-15.85 125.02 0ZM156.79 0.55L156.79 0.55Q151.21 0.55 148.39-2.18 145.56-4.9 145.56-9.98L145.56-9.98 145.56-14.33Q145.56-19.48 148.19-22.26 150.81-25.05 155.86-25.05L155.86-25.05Q159.26-25.05 161.54-23.79 163.81-22.53 164.96-20.2 166.11-17.88 166.11-14.65L166.11-14.65 166.11-13.75Q166.11-12.95 166.05-12.15 165.99-11.35 165.89-10.58L165.89-10.58 162.16-10.58Q162.21-11.78 162.23-12.85 162.24-13.93 162.24-14.83L162.24-14.83Q162.24-17.05 161.53-18.59 160.81-20.13 159.4-20.94 157.99-21.75 155.86-21.75L155.86-21.75Q152.71-21.75 151.14-19.93 149.56-18.1 149.56-14.7L149.56-14.7 149.56-12.38 149.59-11.88 149.59-9.55Q149.59-8.03 150.04-6.8 150.49-5.58 151.45-4.69 152.41-3.8 153.9-3.34 155.39-2.88 157.44-2.88L157.44-2.88Q159.81-2.88 161.86-3.5 163.91-4.13 165.71-5.2L165.71-5.2 165.34-1.7Q163.71-0.68 161.56-0.06 159.41 0.55 156.79 0.55ZM165.04-10.58L147.69-10.58 147.69-13.63 165.04-13.63 165.04-10.58ZM193.18 0.58L193.18 0.58Q187.26 0.58 184.3-2.75 181.33-6.08 181.33-12.2L181.33-12.2 181.33-19.78Q181.33-25.9 184.28-29.21 187.23-32.52 193.13-32.52L193.13-32.52Q195.03-32.52 196.6-32.18 198.16-31.83 199.38-31.28 200.61-30.73 201.46-30.13L201.46-30.13 201.81-26.28Q200.33-27.33 198.35-28.11 196.36-28.9 193.68-28.9L193.68-28.9Q189.66-28.9 187.61-26.51 185.56-24.13 185.56-19.73L185.56-19.73 185.56-12.35Q185.56-7.98 187.63-5.56 189.71-3.15 193.83-3.15L193.83-3.15Q196.48-3.15 198.52-3.93 200.56-4.7 202.06-5.83L202.06-5.83 201.71-1.88Q200.86-1.28 199.61-0.7 198.36-0.13 196.75 0.23 195.13 0.58 193.18 0.58ZM211.26-14.93L211.26-14.93 210.33-18.05 211.33-18.1Q212.13-21.2 214.08-22.99 216.03-24.78 219.26-24.78L219.26-24.78Q220.06-24.78 220.69-24.65 221.33-24.53 221.83-24.35L221.83-24.35 222.08-20.43Q221.46-20.63 220.69-20.75 219.93-20.88 219.01-20.88L219.01-20.88Q216.26-20.88 214.22-19.35 212.18-17.82 211.26-14.93ZM211.46 0L207.41 0 207.41-24.4 211.36-24.4 211.16-17.2 211.46-16.9 211.46 0ZM244.55 0L240.53 0 240.7-5.93 240.55-6.55 240.55-14.33 240.58-15.75Q240.58-18.73 239.07-20.15 237.55-21.58 234.28-21.58L234.28-21.58Q231.65-21.58 229.47-20.83 227.28-20.08 225.58-19.07L225.58-19.07 225.95-22.53Q226.9-23.1 228.22-23.66 229.53-24.23 231.22-24.6 232.9-24.98 234.93-24.98L234.93-24.98Q237.55-24.98 239.39-24.34 241.23-23.7 242.37-22.5 243.5-21.3 244.03-19.6 244.55-17.9 244.55-15.8L244.55-15.8 244.55 0ZM232.13 0.53L232.13 0.53Q228.5 0.53 226.57-1.24 224.63-3 224.63-6.28L224.63-6.28 224.63-7Q224.63-10.38 226.72-12.04 228.8-13.7 233.35-14.35L233.35-14.35 241.08-15.45 241.3-12.5 233.85-11.43Q231.05-11.03 229.85-10.06 228.65-9.1 228.65-7.23L228.65-7.23 228.65-6.83Q228.65-4.9 229.84-3.88 231.03-2.85 233.4-2.85L233.4-2.85Q235.5-2.85 237-3.58 238.5-4.3 239.43-5.53 240.35-6.75 240.68-8.25L240.68-8.25 241.3-5.5 240.53-5.5Q240.18-3.9 239.22-2.53 238.25-1.15 236.53-0.31 234.8 0.53 232.13 0.53ZM258.95-33.8L258.95-33.8Q260.83-33.8 262.31-33.46 263.8-33.13 265.05-32.63L265.05-32.63 265.45-29.45Q264.23-29.9 262.99-30.16 261.75-30.43 260.2-30.43L260.2-30.43Q258.33-30.43 257.19-29.94 256.05-29.45 255.56-28.56 255.08-27.68 255.08-26.43L255.08-26.43 255.08-26.3Q255.08-25.43 255.3-24.64 255.53-23.85 255.8-23.2L255.8-23.2 253.08-23.1 253.08-23.6Q252.3-24.2 251.71-25.28 251.13-26.35 251.13-27.78L251.13-27.78 251.13-27.9Q251.13-30.58 253.03-32.19 254.93-33.8 258.95-33.8ZM255.98 0L251.95 0 251.95-22.23 255.98-22.23 255.98 0ZM264.98-20.25L247.93-20.25 247.93-23.48 253.5-23.45 255.15-23.48 265.35-23.48 264.98-20.25ZM278.4 0.5L278.4 0.5Q275.57 0.5 273.85-0.35 272.12-1.2 271.35-2.93 270.57-4.65 270.57-7.23L270.57-7.23 270.57-22.63 274.57-22.63 274.57-7.7Q274.57-5.3 275.67-4.16 276.77-3.03 279.37-3.03L279.37-3.03Q280.85-3.03 282.21-3.35 283.57-3.68 284.77-4.28L284.77-4.28 284.4-0.8Q283.22-0.2 281.65 0.15 280.07 0.5 278.4 0.5ZM284.15-20.8L266.57-20.8 266.57-24.05 284.52-24.05 284.15-20.8ZM274.47-23.65L270.6-23.65 270.57-30.5 274.65-31.03 274.47-23.65Z" opacity="1" transform="matrix(1,0,0,1,0,0)" fill="#336a86" class="wordmark-text-0" data-fill-palette-color="primary" id="text-0"></path></svg></g></svg></g><g transform="matrix(1,0,0,1,0,59.80140306378436)"><svg viewBox="0 0 395.52 29.89886309047238" height="29.89886309047238" width="395.52"><g transform="matrix(1,0,0,1,0,0)"><svg width="395.52" viewBox="2.6 -32.52 438.53 33.150000000000006" height="29.89886309047238" data-palette-color="#8eaec4"><path d="M14.45 0.58L14.45 0.58Q8.53 0.58 5.56-2.75 2.6-6.08 2.6-12.2L2.6-12.2 2.6-19.78Q2.6-25.9 5.55-29.21 8.5-32.52 14.4-32.52L14.4-32.52Q16.3-32.52 17.86-32.18 19.43-31.83 20.65-31.28 21.88-30.73 22.73-30.13L22.73-30.13 23.08-26.28Q21.6-27.33 19.61-28.11 17.63-28.9 14.95-28.9L14.95-28.9Q10.93-28.9 8.88-26.51 6.83-24.13 6.83-19.73L6.83-19.73 6.83-12.35Q6.83-7.98 8.9-5.56 10.98-3.15 15.1-3.15L15.1-3.15Q17.75-3.15 19.79-3.93 21.83-4.7 23.33-5.83L23.33-5.83 22.98-1.88Q22.13-1.28 20.88-0.7 19.63-0.13 18.01 0.23 16.4 0.58 14.45 0.58ZM33.34-14.93L33.34-14.93 32.41-18.05 33.41-18.1Q34.21-21.2 36.16-22.99 38.11-24.78 41.34-24.78L41.34-24.78Q42.14-24.78 42.77-24.65 43.41-24.53 43.91-24.35L43.91-24.35 44.16-20.43Q43.54-20.63 42.77-20.75 42.01-20.88 41.09-20.88L41.09-20.88Q38.34-20.88 36.3-19.35 34.26-17.82 33.34-14.93ZM33.54-16.9L33.54 0 29.49 0 29.49-24.4 33.44-24.4 33.24-17.2 33.54-16.9ZM59.2 0.55L59.2 0.55Q53.62 0.55 50.8-2.18 47.97-4.9 47.97-9.98L47.97-9.98 47.97-14.33Q47.97-19.48 50.6-22.26 53.22-25.05 58.27-25.05L58.27-25.05Q61.67-25.05 63.95-23.79 66.22-22.53 67.37-20.2 68.52-17.88 68.52-14.65L68.52-14.65 68.52-13.75Q68.52-12.95 68.46-12.15 68.4-11.35 68.3-10.58L68.3-10.58 64.57-10.58Q64.62-11.78 64.64-12.85 64.65-13.93 64.65-14.83L64.65-14.83Q64.65-17.05 63.94-18.59 63.22-20.13 61.81-20.94 60.4-21.75 58.27-21.75L58.27-21.75Q55.12-21.75 53.55-19.93 51.97-18.1 51.97-14.7L51.97-14.7 51.97-12.38 52-11.88 52-9.55Q52-8.03 52.45-6.8 52.9-5.58 53.86-4.69 54.82-3.8 56.31-3.34 57.8-2.88 59.85-2.88L59.85-2.88Q62.22-2.88 64.27-3.5 66.32-4.13 68.12-5.2L68.12-5.2 67.75-1.7Q66.12-0.68 63.97-0.06 61.82 0.55 59.2 0.55ZM67.45-13.63L67.45-10.58 50.1-10.58 50.1-13.63 67.45-13.63ZM93.24-15.8L93.24 0 89.21 0 89.39-5.93 89.24-6.55 89.24-14.33 89.26-15.75Q89.26-18.73 87.75-20.15 86.24-21.58 82.96-21.58L82.96-21.58Q80.34-21.58 78.15-20.83 75.96-20.08 74.26-19.07L74.26-19.07 74.64-22.53Q75.59-23.1 76.9-23.66 78.21-24.23 79.9-24.6 81.59-24.98 83.61-24.98L83.61-24.98Q86.24-24.98 88.07-24.34 89.91-23.7 91.05-22.5 92.19-21.3 92.71-19.6 93.24-17.9 93.24-15.8L93.24-15.8ZM80.81 0.53L80.81 0.53Q77.19 0.53 75.25-1.24 73.31-3 73.31-6.28L73.31-6.28 73.31-7Q73.31-10.38 75.4-12.04 77.49-13.7 82.04-14.35L82.04-14.35 89.76-15.45 89.99-12.5 82.54-11.43Q79.74-11.03 78.54-10.06 77.34-9.1 77.34-7.23L77.34-7.23 77.34-6.83Q77.34-4.9 78.52-3.88 79.71-2.85 82.09-2.85L82.09-2.85Q84.19-2.85 85.69-3.58 87.19-4.3 88.11-5.53 89.04-6.75 89.36-8.25L89.36-8.25 89.99-5.5 89.21-5.5Q88.86-3.9 87.9-2.53 86.94-1.15 85.21-0.31 83.49 0.53 80.81 0.53ZM109.12 0.5L109.12 0.5Q106.3 0.5 104.57-0.35 102.85-1.2 102.07-2.93 101.3-4.65 101.3-7.23L101.3-7.23 101.3-22.63 105.3-22.63 105.3-7.7Q105.3-5.3 106.4-4.16 107.5-3.03 110.1-3.03L110.1-3.03Q111.57-3.03 112.94-3.35 114.3-3.68 115.5-4.28L115.5-4.28 115.12-0.8Q113.95-0.2 112.37 0.15 110.8 0.5 109.12 0.5ZM115.25-24.05L114.87-20.8 97.3-20.8 97.3-24.05 115.25-24.05ZM105.37-31.03L105.2-23.65 101.32-23.65 101.3-30.5 105.37-31.03ZM131.08 0.55L131.08 0.55Q125.51 0.55 122.68-2.18 119.86-4.9 119.86-9.98L119.86-9.98 119.86-14.33Q119.86-19.48 122.48-22.26 125.11-25.05 130.16-25.05L130.16-25.05Q133.56-25.05 135.83-23.79 138.11-22.53 139.26-20.2 140.41-17.88 140.41-14.65L140.41-14.65 140.41-13.75Q140.41-12.95 140.35-12.15 140.28-11.35 140.18-10.58L140.18-10.58 136.46-10.58Q136.51-11.78 136.52-12.85 136.53-13.93 136.53-14.83L136.53-14.83Q136.53-17.05 135.82-18.59 135.11-20.13 133.7-20.94 132.28-21.75 130.16-21.75L130.16-21.75Q127.01-21.75 125.43-19.93 123.86-18.1 123.86-14.7L123.86-14.7 123.86-12.38 123.88-11.88 123.88-9.55Q123.88-8.03 124.33-6.8 124.78-5.58 125.75-4.69 126.71-3.8 128.2-3.34 129.68-2.88 131.73-2.88L131.73-2.88Q134.11-2.88 136.16-3.5 138.21-4.13 140.01-5.2L140.01-5.2 139.63-1.7Q138.01-0.68 135.86-0.06 133.71 0.55 131.08 0.55ZM139.33-13.63L139.33-10.58 121.98-10.58 121.98-13.63 139.33-13.63ZM182.63-31.95L171.66-9.6 168.08-9.6 157.11-31.95 161.48-31.95 167.36-19.73 169.71-14.43 170.03-14.43 172.38-19.73 178.23-31.95 182.63-31.95ZM171.91-13.48L171.91 0 167.83 0 167.83-13.48 171.91-13.48ZM197.37 0.63L197.37 0.63Q192.12 0.63 189.41-2.21 186.7-5.05 186.7-10.38L186.7-10.38 186.7-14.1Q186.7-19.4 189.42-22.23 192.15-25.05 197.37-25.05L197.37-25.05Q202.62-25.05 205.33-22.23 208.05-19.4 208.05-14.1L208.05-14.1 208.05-10.38Q208.05-5.05 205.33-2.21 202.62 0.63 197.37 0.63ZM197.37-2.68L197.37-2.68Q200.62-2.68 202.31-4.6 204-6.53 204-10.15L204-10.15 204-14.33Q204-17.93 202.31-19.84 200.62-21.75 197.37-21.75L197.37-21.75Q194.15-21.75 192.45-19.84 190.75-17.93 190.75-14.33L190.75-14.33 190.75-10.15Q190.75-6.53 192.45-4.6 194.15-2.68 197.37-2.68ZM214.18-8.78L214.18-24.4 218.21-24.4 218.21-9.22Q218.21-7.3 218.74-5.86 219.28-4.42 220.51-3.64 221.73-2.85 223.81-2.85L223.81-2.85Q225.76-2.85 227.16-3.56 228.56-4.28 229.44-5.53 230.33-6.78 230.66-8.35L230.66-8.35 231.38-5.48 230.51-5.48Q230.13-3.83 229.13-2.46 228.13-1.1 226.44-0.29 224.76 0.53 222.28 0.53L222.28 0.53Q219.41 0.53 217.62-0.56 215.83-1.65 215.01-3.74 214.18-5.83 214.18-8.78L214.18-8.78ZM230.48-6.1L230.48-24.4 234.53-24.4 234.53 0 230.48 0 230.66-5.85 230.48-6.1ZM245.79-14.93L245.79-14.93 244.87-18.05 245.87-18.1Q246.67-21.2 248.62-22.99 250.57-24.78 253.79-24.78L253.79-24.78Q254.59-24.78 255.23-24.65 255.87-24.53 256.37-24.35L256.37-24.35 256.62-20.43Q255.99-20.63 255.23-20.75 254.47-20.88 253.54-20.88L253.54-20.88Q250.79-20.88 248.76-19.35 246.72-17.82 245.79-14.93ZM245.99-16.9L245.99 0 241.94 0 241.94-24.4 245.89-24.4 245.69-17.2 245.99-16.9ZM296.54-7.03L297.62 0 293.34 0 292.44-6.55Q292.19-8.4 291.59-9.76 290.99-11.13 289.76-11.9 288.52-12.68 286.24-12.68L286.24-12.68 277.57-12.7 277.57-15.98 286.84-16Q290.12-16 291.52-17.61 292.92-19.23 292.92-22L292.92-22 292.92-22.75Q292.92-25.5 291.49-27.01 290.07-28.53 286.74-28.53L286.74-28.53 277.44-28.53 277.44-31.95 287.29-31.95Q292.44-31.95 294.78-29.69 297.12-27.43 297.12-23.45L297.12-23.45 297.12-22.6Q297.12-19.48 295.64-17.49 294.17-15.5 290.74-15.08L290.74-15.08 290.74-14.58 288.97-15.2Q291.74-15 293.26-13.99 294.77-12.98 295.47-11.23 296.17-9.47 296.54-7.03L296.54-7.03ZM278.82-13.3L278.82 0 274.72 0 274.72-31.95 278.79-31.95 278.79-14.88 278.82-13.3ZM314.08 0.55L314.08 0.55Q308.51 0.55 305.68-2.18 302.86-4.9 302.86-9.98L302.86-9.98 302.86-14.33Q302.86-19.48 305.48-22.26 308.11-25.05 313.16-25.05L313.16-25.05Q316.56-25.05 318.83-23.79 321.11-22.53 322.26-20.2 323.41-17.88 323.41-14.65L323.41-14.65 323.41-13.75Q323.41-12.95 323.34-12.15 323.28-11.35 323.18-10.58L323.18-10.58 319.46-10.58Q319.51-11.78 319.52-12.85 319.53-13.93 319.53-14.83L319.53-14.83Q319.53-17.05 318.82-18.59 318.11-20.13 316.69-20.94 315.28-21.75 313.16-21.75L313.16-21.75Q310.01-21.75 308.43-19.93 306.86-18.1 306.86-14.7L306.86-14.7 306.86-12.38 306.88-11.88 306.88-9.55Q306.88-8.03 307.33-6.8 307.78-5.58 308.74-4.69 309.71-3.8 311.19-3.34 312.68-2.88 314.73-2.88L314.73-2.88Q317.11-2.88 319.16-3.5 321.21-4.13 323.01-5.2L323.01-5.2 322.63-1.7Q321.01-0.68 318.86-0.06 316.71 0.55 314.08 0.55ZM322.33-13.63L322.33-10.58 304.98-10.58 304.98-13.63 322.33-13.63ZM337.24 0.55L337.24 0.55Q334.29 0.55 332.09-0.09 329.89-0.73 328.44-1.48L328.44-1.48 328.07-5.23Q329.89-4.28 332.08-3.58 334.27-2.88 337.04-2.88L337.04-2.88Q339.87-2.88 341.29-3.78 342.72-4.67 342.72-6.45L342.72-6.45 342.72-6.73Q342.72-7.88 342.18-8.63 341.64-9.38 340.24-9.95 338.84-10.53 336.27-11.1L336.27-11.1Q333.19-11.78 331.42-12.69 329.64-13.6 328.88-14.95 328.12-16.3 328.12-18.25L328.12-18.25 328.12-18.48Q328.12-21.68 330.34-23.33 332.57-24.98 337.04-24.98L337.04-24.98Q339.92-24.98 342.03-24.33 344.14-23.68 345.49-22.88L345.49-22.88 345.87-19.45Q344.24-20.4 342.14-21.03 340.04-21.65 337.42-21.65L337.42-21.65Q335.52-21.65 334.34-21.26 333.17-20.88 332.64-20.16 332.12-19.45 332.12-18.45L332.12-18.45 332.12-18.25Q332.12-17.15 332.64-16.39 333.17-15.63 334.53-15.06 335.89-14.5 338.32-13.98L338.32-13.98Q341.44-13.35 343.28-12.48 345.12-11.6 345.92-10.26 346.72-8.93 346.72-6.83L346.72-6.83 346.72-6.4Q346.72-2.95 344.32-1.2 341.92 0.55 337.24 0.55ZM352.18-8.78L352.18-24.4 356.2-24.4 356.2-9.22Q356.2-7.3 356.74-5.86 357.28-4.42 358.5-3.64 359.73-2.85 361.8-2.85L361.8-2.85Q363.75-2.85 365.15-3.56 366.55-4.28 367.44-5.53 368.33-6.78 368.65-8.35L368.65-8.35 369.38-5.48 368.5-5.48Q368.13-3.83 367.13-2.46 366.13-1.1 364.44-0.29 362.75 0.53 360.28 0.53L360.28 0.53Q357.4 0.53 355.62-0.56 353.83-1.65 353-3.74 352.18-5.83 352.18-8.78L352.18-8.78ZM368.48-6.1L368.48-24.4 372.53-24.4 372.53 0 368.48 0 368.65-5.85 368.48-6.1ZM414.47-15.73L414.47 0 410.42 0 410.42-15.28Q410.42-17.2 409.93-18.61 409.44-20.03 408.33-20.8 407.22-21.58 405.34-21.58L405.34-21.58Q403.57-21.58 402.27-20.85 400.97-20.13 400.17-18.91 399.37-17.7 399.04-16.15L399.04-16.15 398.42-19.03 398.92-19.03Q399.32-20.6 400.27-21.95 401.22-23.3 402.84-24.13 404.47-24.95 406.87-24.95L406.87-24.95Q409.59-24.95 411.25-23.88 412.92-22.8 413.69-20.74 414.47-18.68 414.47-15.73L414.47-15.73ZM383.99-18.3L383.99 0 379.94 0 379.94-24.4 383.99-24.4 383.82-18.55 383.99-18.3ZM399.22-15.85L399.22 0 395.19 0 395.19-15.28Q395.19-17.2 394.7-18.61 394.22-20.03 393.12-20.8 392.02-21.58 390.14-21.58L390.14-21.58Q388.34-21.58 387.04-20.85 385.74-20.13 384.94-18.89 384.14-17.65 383.82-16.07L383.82-16.07 383.07-18.95 383.97-18.95Q384.34-20.6 385.27-21.96 386.19-23.33 387.78-24.14 389.37-24.95 391.64-24.95L391.64-24.95Q395.02-24.95 396.78-23.2 398.54-21.45 398.99-18.1L398.99-18.1Q399.12-17.6 399.17-17.01 399.22-16.43 399.22-15.85L399.22-15.85ZM431.8 0.55L431.8 0.55Q426.23 0.55 423.4-2.18 420.58-4.9 420.58-9.98L420.58-9.98 420.58-14.33Q420.58-19.48 423.2-22.26 425.83-25.05 430.88-25.05L430.88-25.05Q434.28-25.05 436.55-23.79 438.83-22.53 439.98-20.2 441.13-17.88 441.13-14.65L441.13-14.65 441.13-13.75Q441.13-12.95 441.07-12.15 441-11.35 440.9-10.58L440.9-10.58 437.18-10.58Q437.23-11.78 437.24-12.85 437.25-13.93 437.25-14.83L437.25-14.83Q437.25-17.05 436.54-18.59 435.83-20.13 434.42-20.94 433-21.75 430.88-21.75L430.88-21.75Q427.73-21.75 426.15-19.93 424.58-18.1 424.58-14.7L424.58-14.7 424.58-12.38 424.6-11.88 424.6-9.55Q424.6-8.03 425.05-6.8 425.5-5.58 426.47-4.69 427.43-3.8 428.92-3.34 430.4-2.88 432.45-2.88L432.45-2.88Q434.83-2.88 436.88-3.5 438.93-4.13 440.73-5.2L440.73-5.2 440.35-1.7Q438.73-0.68 436.58-0.06 434.43 0.55 431.8 0.55ZM440.05-13.63L440.05-10.58 422.7-10.58 422.7-13.63 440.05-13.63Z" opacity="1" transform="matrix(1,0,0,1,0,0)" fill="#8eaec4" class="slogan-text-1" data-fill-palette-color="secondary" id="text-1"></path></svg></g></svg></g></svg></g></svg></g><g transform="matrix(1,0,0,1,147.75108229779556,0)"><svg viewBox="0 0 100.01783540440887 123.96576782518282" height="123.96576782518282" width="100.01783540440887"><g><svg xmlns="http://www.w3.org/2000/svg" xmlns:xlink="http://www.w3.org/1999/xlink" version="1.1" x="0" y="0" viewBox="14.499 5.5 71 88" enable-background="new 0 0 100 100" xml:space="preserve" height="123.96576782518282" width="100.01783540440887" class="icon-icon-0" data-fill-palette-color="accent" id="icon-0"><g fill="#283132" data-fill-palette-color="accent"><path fill="#283132" d="M45.37 31A5.003 5.003 0 0 0 50.37 26C50.37 24.68 49.84 23.4 48.91 22.46A5.04 5.04 0 0 0 45.37 21C44.05 21 42.76 21.53 41.83 22.46 40.9 23.4 40.37 24.69 40.37 26A5.003 5.003 0 0 0 45.37 31" data-fill-palette-color="accent"></path><path fill="#283132" d="M36 44.5H54.757A5 5 0 0 0 56.972 35.016C55.598 34.244 51.167 32.041 45.371 32.041 38.747 32.041 33.901 34.919 33.371 35.248A5 5 0 0 0 36 44.5" data-fill-palette-color="accent"></path><path fill="#283132" d="M85.401 23.521C85.372 23.373 85.316 23.236 85.274 23.093 85.224 22.924 85.185 22.752 85.117 22.588 85.048 22.419 84.952 22.266 84.864 22.107 84.795 21.981 84.739 21.849 84.658 21.728A5 5 0 0 0 84.034 20.963L70.037 6.966A5 5 0 0 0 69.273 6.341C69.15 6.26 69.018 6.204 68.89 6.134 68.733 6.047 68.58 5.952 68.412 5.883 68.251 5.816 68.082 5.778 67.916 5.729 67.77 5.686 67.63 5.629 67.478 5.599A5 5 0 0 0 66.548 5.505C66.531 5.505 66.516 5.5 66.499 5.5H19.499A5 5 0 0 0 14.499 10.5V88.5A5 5 0 0 0 19.499 93.5H80.499A5 5 0 0 0 85.499 88.5V24.5A5 5 0 0 0 85.401 23.521M75.5 83.5H24.5V15.5H61.5V24.5A5 5 0 0 0 66.5 29.5H75.5z" data-fill-palette-color="accent"></path><path fill="#283132" d="M35.5 50.5A5 5 0 1 0 35.5 60.5H64.5C67.262 60.5 69.5 58.262 69.5 55.5S67.262 50.5 64.5 50.5z" data-fill-palette-color="accent"></path><path fill="#283132" d="M64.5 66.5H35.5A5 5 0 1 0 35.5 76.5H64.5C67.262 76.5 69.5 74.262 69.5 71.5S67.262 66.5 64.5 66.5" data-fill-palette-color="accent"></path></g></svg></g></svg></g><g></g></svg></g><defs></defs></svg><rect width="395.52" height="225.08739968000003" fill="none" stroke="none" visibility="hidden"></rect></g></svg></g></svg>